<?xml version="1.0" encoding="UTF-8" standalone="no"?>
<svg
   xmlns:dc="http://purl.org/dc/elements/1.1/"
   xmlns:cc="http://creativecommons.org/ns#"
   xmlns:rdf="http://www.w3.org/1999/02/22-rdf-syntax-ns#"
   xmlns:svg="http://www.w3.org/2000/svg"
   xmlns="http://www.w3.org/2000/svg"
   xmlns:sodipodi="http://sodipodi.sourceforge.net/DTD/sodipodi-0.dtd"
   xmlns:inkscape="http://www.inkscape.org/namespaces/inkscape"
   enable-background="new 0 0 64 64"
   height="64px"
   id="Layer_1"
   version="1.1"
   viewBox="0 0 64 64"
   width="64px"
   xml:space="preserve"
   inkscape:version="0.91 r13725"
   sodipodi:docname="audio.svg"><metadata
     id="metadata33"><rdf:RDF><cc:Work
         rdf:about=""><dc:format>image/svg+xml</dc:format><dc:type
           rdf:resource="http://purl.org/dc/dcmitype/StillImage" /></cc:Work></rdf:RDF></metadata><defs
     id="defs31" /><sodipodi:namedview
     pagecolor="#ffffff"
     bordercolor="#666666"
     borderopacity="1"
     objecttolerance="10"
     gridtolerance="10"
     guidetolerance="10"
     inkscape:pageopacity="0"
     inkscape:pageshadow="2"
     inkscape:window-width="1021"
     inkscape:window-height="719"
     id="namedview29"
     showgrid="false"
     inkscape:zoom="3.6875"
     inkscape:cx="-8.4067797"
     inkscape:cy="32"
     inkscape:window-x="10"
     inkscape:window-y="34"
     inkscape:window-maximized="0"
     inkscape:current-layer="Layer_1" /><g
     opacity="0.2"
     id="g5"><path
       d="M33.866,12.197C33.591,12.065,33.295,12,33,12c-0.446,0-0.888,0.149-1.25,0.438L17.298,24H12   c-1.105,0-2,0.895-2,2v16c0,1.105,0.895,2,2,2h5.298l14.452,11.562C32.112,55.851,32.554,56,33,56c0.294,0,0.59-0.065,0.866-0.197   C34.559,55.47,35,54.769,35,54V14C35,13.231,34.559,12.53,33.866,12.197z"
       fill="#231F20"
       id="path7" /><path
       d="M38.036,36.833c-0.672,0.485-0.824,1.422-0.339,2.094c0.293,0.407,0.752,0.623,1.218,0.623   c0.304,0,0.61-0.092,0.876-0.283c1.697-1.224,2.71-3.192,2.71-5.266s-1.013-4.042-2.71-5.266c-0.672-0.484-1.609-0.332-2.094,0.339   c-0.484,0.672-0.333,1.609,0.339,2.094C38.966,31.838,39.5,32.871,39.5,34S38.966,36.162,38.036,36.833z"
       fill="#231F20"
       id="path9" /><path
       d="M38.516,43.151c-0.799,0.219-1.269,1.044-1.049,1.843c0.183,0.666,0.787,1.104,1.445,1.104   c0.131,0,0.265-0.017,0.398-0.054C44.721,44.559,48.5,39.606,48.5,34s-3.779-10.559-9.19-12.044   c-0.797-0.219-1.624,0.25-1.843,1.049c-0.22,0.799,0.25,1.624,1.049,1.843C42.628,25.978,45.5,29.741,45.5,34   S42.628,42.022,38.516,43.151z"
       fill="#231F20"
       id="path11" /><path
       d="M39.169,15.789c-0.821-0.145-1.593,0.406-1.734,1.222c-0.141,0.816,0.406,1.593,1.222,1.734   C46.099,20.033,51.5,26.448,51.5,34s-5.401,13.967-12.843,15.255c-0.816,0.141-1.363,0.917-1.222,1.734   c0.126,0.729,0.76,1.244,1.476,1.244c0.085,0,0.171-0.007,0.258-0.022C48.052,50.674,54.5,43.015,54.5,34   S48.052,17.326,39.169,15.789z"
       fill="#231F20"
       id="path13" /></g><path
     d="M31,40c0,1.105-0.895,2-2,2H12c-1.105,0-2-0.895-2-2V24c0-1.105,0.895-2,2-2h17c1.105,0,2,0.895,2,2V40z"
     fill="#4F5D73"
     id="path15" /><g
     id="g17"><path
       d="M33,53c-0.223,0-0.444-0.075-0.625-0.219l-15-12C17.138,40.591,17,40.304,17,40V24   c0-0.304,0.138-0.591,0.375-0.781l15-12C32.556,11.075,32.777,11,33,11c0.147,0,0.295,0.033,0.433,0.099   C33.78,11.265,34,11.616,34,12v40c0,0.384-0.22,0.735-0.567,0.901C33.295,52.967,33.147,53,33,53z"
       fill="#4F5D73"
       id="path19" /><path
       d="M33,12v40L18,40V24L33,12 M33,10c-0.446,0-0.888,0.149-1.25,0.438l-15,12C16.276,22.818,16,23.392,16,24v16   c0,0.607,0.276,1.182,0.751,1.562l15,12C32.112,53.851,32.554,54,33,54c0.294,0,0.59-0.065,0.866-0.197   C34.559,53.47,35,52.769,35,52V12c0-0.769-0.441-1.469-1.134-1.803C33.591,10.065,33.295,10,33,10L33,10z"
       fill="#4F5D73"
       id="path21" /></g><path
     d="M38.913,36.049  C40.172,35.141,41,33.671,41,32s-0.828-3.141-2.087-4.049"
     fill="none"
     stroke="#FFFFFF"
     stroke-linecap="round"
     stroke-miterlimit="10"
     stroke-width="3"
     id="path23"
     style="stroke:#ffcfac;stroke-opacity:1" /><path
     d="M38.913,42.597  C43.572,41.319,47,37.065,47,32s-3.428-9.319-8.087-10.597"
     stroke-miterlimit="10"
     id="path25"
     stroke-linecap="round"
     stroke-width="3"
     stroke="#E0E0D1"
     fill="none"
     style="stroke:#eda771;stroke-opacity:1" /><path
     d="M38.913,48.733  C46.911,47.349,53,40.394,53,32s-6.089-15.349-14.087-16.733"
     stroke-miterlimit="10"
     id="path27"
     stroke-linecap="round"
     stroke-width="3"
     stroke="#F5CF87"
     fill="none"
     style="stroke:#ff6e00;stroke-opacity:1" /></svg>