<?xml version="1.0" encoding="UTF-8" standalone="no"?>
<svg
   xmlns:dc="http://purl.org/dc/elements/1.1/"
   xmlns:cc="http://creativecommons.org/ns#"
   xmlns:rdf="http://www.w3.org/1999/02/22-rdf-syntax-ns#"
   xmlns:svg="http://www.w3.org/2000/svg"
   xmlns="http://www.w3.org/2000/svg"
   xmlns:sodipodi="http://sodipodi.sourceforge.net/DTD/sodipodi-0.dtd"
   xmlns:inkscape="http://www.inkscape.org/namespaces/inkscape"
   enable-background="new 0 0 64 64"
   height="64px"
   id="Layer_1"
   version="1.1"
   viewBox="0 0 64 64"
   width="64px"
   xml:space="preserve"
   inkscape:version="0.91 r13725"
   sodipodi:docname="chart.svg"><metadata
     id="metadata65"><rdf:RDF><cc:Work
         rdf:about=""><dc:format>image/svg+xml</dc:format><dc:type
           rdf:resource="http://purl.org/dc/dcmitype/StillImage" /></cc:Work></rdf:RDF></metadata><defs
     id="defs63" /><sodipodi:namedview
     pagecolor="#ffffff"
     bordercolor="#666666"
     borderopacity="1"
     objecttolerance="10"
     gridtolerance="10"
     guidetolerance="10"
     inkscape:pageopacity="0"
     inkscape:pageshadow="2"
     inkscape:window-width="694"
     inkscape:window-height="480"
     id="namedview61"
     showgrid="false"
     inkscape:zoom="3.6875"
     inkscape:cx="32"
     inkscape:cy="32"
     inkscape:window-x="10"
     inkscape:window-y="34"
     inkscape:window-maximized="0"
     inkscape:current-layer="Layer_1" /><rect
     fill="#231F20"
     height="4"
     opacity="0.2"
     width="12"
     x="26"
     y="46"
     id="rect5" /><rect
     fill="#231F20"
     height="4"
     opacity="0.2"
     width="12"
     x="40"
     y="46"
     id="rect7" /><rect
     fill="#231F20"
     height="4"
     opacity="0.2"
     width="12"
     x="12"
     y="46"
     id="rect9" /><rect
     fill="#231F20"
     height="4"
     opacity="0.2"
     width="12"
     x="26"
     y="41"
     id="rect11" /><rect
     fill="#231F20"
     height="4"
     opacity="0.2"
     width="12"
     x="40"
     y="41"
     id="rect13" /><rect
     fill="#231F20"
     height="4"
     opacity="0.2"
     width="12"
     x="12"
     y="41"
     id="rect15" /><rect
     fill="#231F20"
     height="4"
     opacity="0.2"
     width="12"
     x="26"
     y="36"
     id="rect17" /><rect
     fill="#231F20"
     height="4"
     opacity="0.2"
     width="12"
     x="40"
     y="36"
     id="rect19" /><rect
     fill="#231F20"
     height="4"
     opacity="0.2"
     width="12"
     x="12"
     y="36"
     id="rect21" /><rect
     fill="#231F20"
     height="4"
     opacity="0.2"
     width="12"
     x="26"
     y="31"
     id="rect23" /><rect
     fill="#231F20"
     height="4"
     opacity="0.2"
     width="12"
     x="40"
     y="31"
     id="rect25" /><rect
     fill="#231F20"
     height="4"
     opacity="0.2"
     width="12"
     x="26"
     y="26"
     id="rect27" /><rect
     fill="#231F20"
     height="4"
     opacity="0.2"
     width="12"
     x="26"
     y="21"
     id="rect29" /><rect
     fill="#231F20"
     height="4"
     opacity="0.2"
     width="12"
     x="26"
     y="16"
     id="rect31" /><rect
     fill="#C75C5C"
     height="4"
     width="12"
     x="26"
     y="44"
     id="rect33" /><rect
     fill="#C75C5C"
     height="4"
     width="12"
     x="40"
     y="44"
     id="rect35" /><rect
     fill="#C75C5C"
     height="4"
     width="12"
     x="12"
     y="44"
     id="rect37" /><rect
     fill="#E0995E"
     height="4"
     width="12"
     x="26"
     y="39"
     id="rect39" /><rect
     fill="#E0995E"
     height="4"
     width="12"
     x="40"
     y="39"
     id="rect41" /><rect
     fill="#E0995E"
     height="4"
     width="12"
     x="12"
     y="39"
     id="rect43" /><rect
     fill="#E0995E"
     height="4"
     width="12"
     x="26"
     y="34"
     id="rect45" /><rect
     fill="#E0995E"
     height="4"
     width="12"
     x="40"
     y="34"
     id="rect47" /><rect
     fill="#E0995E"
     height="4"
     width="12"
     x="12"
     y="34"
     id="rect49" /><rect
     fill="#F5CF87"
     height="4"
     width="12"
     x="26"
     y="29"
     id="rect51" /><rect
     fill="#F5CF87"
     height="4"
     width="12"
     x="40"
     y="29"
     id="rect53" /><rect
     fill="#F5CF87"
     height="4"
     width="12"
     x="26"
     y="24"
     id="rect55" /><rect
     fill="#76C2AF"
     height="4"
     width="12"
     x="26"
     y="19"
     id="rect57" /><rect
     fill="#76C2AF"
     height="4"
     width="12"
     x="26"
     y="14"
     id="rect59" /></svg>