<?xml version="1.0" encoding="UTF-8" standalone="no"?>
<svg
   xmlns:dc="http://purl.org/dc/elements/1.1/"
   xmlns:cc="http://creativecommons.org/ns#"
   xmlns:rdf="http://www.w3.org/1999/02/22-rdf-syntax-ns#"
   xmlns:svg="http://www.w3.org/2000/svg"
   xmlns="http://www.w3.org/2000/svg"
   xmlns:sodipodi="http://sodipodi.sourceforge.net/DTD/sodipodi-0.dtd"
   xmlns:inkscape="http://www.inkscape.org/namespaces/inkscape"
   enable-background="new 0 0 64 64"
   height="64px"
   version="1.1"
   viewBox="0 0 64 64"
   width="64px"
   xml:space="preserve"
   id="svg2"
   inkscape:version="0.91 r13725"
   sodipodi:docname="folder.svg"><metadata
     id="metadata30"><rdf:RDF><cc:Work
         rdf:about=""><dc:format>image/svg+xml</dc:format><dc:type
           rdf:resource="http://purl.org/dc/dcmitype/StillImage" /></cc:Work></rdf:RDF></metadata><defs
     id="defs28" /><sodipodi:namedview
     pagecolor="#ffffff"
     bordercolor="#666666"
     borderopacity="1"
     objecttolerance="10"
     gridtolerance="10"
     guidetolerance="10"
     inkscape:pageopacity="0"
     inkscape:pageshadow="2"
     inkscape:window-width="1148"
     inkscape:window-height="628"
     id="namedview26"
     showgrid="false"
     inkscape:zoom="3.6875"
     inkscape:cx="-41.762712"
     inkscape:cy="32"
     inkscape:window-x="10"
     inkscape:window-y="34"
     inkscape:window-maximized="0"
     inkscape:current-layer="Layer_1" /><g
     id="Layer_1"><g
       opacity="0.2"
       id="g9"><g
         id="g11"><path
           d="M32,22.923h-0.417H14.5c-1.38,0-2.5,1.063-2.5,2.422v22.193C12,48.897,13.12,50,14.5,50h35     c1.38,0,2.5-1.103,2.5-2.462V27.846v-2.501v-2.422H32z"
           fill="#231F20"
           id="path13" /></g></g><g
       id="g15"
       style="fill:#ffe255;fill-opacity:1"><g
         id="g17"
         style="fill:#ffe255;fill-opacity:1"><path
           d="M32,20.923h-0.417H14.5c-1.38,0-2.5,1.063-2.5,2.422v22.193C12,46.897,13.12,48,14.5,48h35     c1.38,0,2.5-1.103,2.5-2.462V25.846v-2.501v-2.422H32z"
           fill="#FFFFFF"
           id="path19"
           style="fill:#ffe255;fill-opacity:1" /></g></g><g
       id="g21"
       style="fill:#ff7e00;fill-opacity:1"><path
         d="M52,18.462C52,17.103,50.88,16,49.5,16H37c-1.38,0-2.5,1.103-2.5,2.462c0,0-0.325,2.257-2.5,2.461h20    V18.462z"
         fill="#E0E0D1"
         id="path23"
         style="fill:#ff7e00;fill-opacity:1" /></g></g><g
     id="Layer_2" /></svg>