<?xml version="1.0" encoding="UTF-8" standalone="no"?>
<svg
   xmlns:dc="http://purl.org/dc/elements/1.1/"
   xmlns:cc="http://creativecommons.org/ns#"
   xmlns:rdf="http://www.w3.org/1999/02/22-rdf-syntax-ns#"
   xmlns:svg="http://www.w3.org/2000/svg"
   xmlns="http://www.w3.org/2000/svg"
   xmlns:sodipodi="http://sodipodi.sourceforge.net/DTD/sodipodi-0.dtd"
   xmlns:inkscape="http://www.inkscape.org/namespaces/inkscape"
   enable-background="new 0 0 64 64"
   height="64px"
   version="1.1"
   viewBox="0 0 64 64"
   width="64px"
   xml:space="preserve"
   id="svg2"
   inkscape:version="0.91 r13725"
   sodipodi:docname="code.svg"><metadata
     id="metadata48"><rdf:RDF><cc:Work
         rdf:about=""><dc:format>image/svg+xml</dc:format><dc:type
           rdf:resource="http://purl.org/dc/dcmitype/StillImage" /></cc:Work></rdf:RDF></metadata><defs
     id="defs46" /><sodipodi:namedview
     pagecolor="#ffffff"
     bordercolor="#666666"
     borderopacity="1"
     objecttolerance="10"
     gridtolerance="10"
     guidetolerance="10"
     inkscape:pageopacity="0"
     inkscape:pageshadow="2"
     inkscape:window-width="1112"
     inkscape:window-height="819"
     id="namedview44"
     showgrid="false"
     inkscape:zoom="3.6875"
     inkscape:cx="-8.4067797"
     inkscape:cy="32"
     inkscape:window-x="10"
     inkscape:window-y="34"
     inkscape:window-maximized="0"
     inkscape:current-layer="Layer_1" /><g
     id="Layer_1"><g
       opacity="0.2"
       id="g9"><g
         id="g11"><g
           id="g13"><path
             d="M42.461,44c-0.671,0-1.326-0.338-1.705-0.951c-0.58-0.94-0.287-2.172,0.653-2.752l10.124-6.242      c0.005-0.018,0.007-0.036,0.007-0.056s-0.002-0.038-0.007-0.056L41.41,27.703c-0.94-0.58-1.232-1.812-0.653-2.752      c0.58-0.94,1.812-1.232,2.752-0.653l10.63,6.554l0.165,0.165c0.797,0.797,1.236,1.856,1.236,2.983      c0,1.126-0.439,2.186-1.236,2.983l-0.166,0.166l-10.63,6.554C43.182,43.904,42.819,44,42.461,44z"
             fill="#231F20"
             id="path15" /></g></g><g
         id="g17"><g
           id="g19"><path
             d="M21.539,44c-0.358,0-0.721-0.096-1.048-0.298l-10.63-6.554l-0.166-0.166      C8.898,36.186,8.459,35.126,8.459,34c0-1.127,0.439-2.187,1.236-2.983l0.165-0.165l10.63-6.554      c0.941-0.58,2.172-0.287,2.752,0.653c0.58,0.94,0.287,2.172-0.653,2.752l-10.124,6.242c-0.005,0.018-0.007,0.036-0.007,0.056      s0.002,0.038,0.007,0.056l10.124,6.242c0.94,0.58,1.232,1.812,0.653,2.752C22.865,43.663,22.209,44,21.539,44z"
             fill="#231F20"
             id="path21" /></g></g></g><g
       opacity="0.2"
       id="g23"><g
         id="g25"><path
           d="M25.5,53c-0.237,0-0.479-0.042-0.714-0.132c-1.032-0.395-1.548-1.551-1.154-2.583l13-34     c0.395-1.032,1.551-1.549,2.583-1.154c1.032,0.395,1.548,1.551,1.154,2.583l-13,34C27.063,52.511,26.305,53,25.5,53z"
           fill="#231F20"
           id="path27" /></g></g><g
       id="g29"
       style="fill:#ff6e00;fill-opacity:1"><g
         id="g31"
         style="fill:#ff6e00;fill-opacity:1"><path
           d="M42.461,42c-0.671,0-1.327-0.337-1.705-0.95c-0.58-0.94-0.287-2.173,0.653-2.752l10.123-6.241     c0.01-0.037,0.01-0.076,0-0.113L41.41,25.702c-0.94-0.579-1.233-1.812-0.653-2.752c0.58-0.94,1.811-1.233,2.752-0.652     l10.631,6.554l0.166,0.165c1.644,1.646,1.644,4.321,0,5.967l-0.166,0.165l-10.631,6.554C43.182,41.904,42.819,42,42.461,42z"
           fill="#FFFFFF"
           id="path33"
           style="fill:#ff6e00;fill-opacity:1" /></g><g
         id="g35"
         style="fill:#ff6e00;fill-opacity:1"><path
           d="M21.539,42c-0.358,0-0.72-0.096-1.047-0.298L9.86,35.148l-0.166-0.165c-1.644-1.646-1.644-4.321,0-5.967     l0.166-0.165l10.631-6.554c0.939-0.581,2.173-0.288,2.752,0.652c0.58,0.94,0.287,2.173-0.653,2.752l-10.123,6.241     c-0.01,0.037-0.01,0.076,0,0.113l10.123,6.241c0.94,0.579,1.233,1.812,0.653,2.752C22.865,41.663,22.209,42,21.539,42z"
           fill="#FFFFFF"
           id="path37"
           style="fill:#ff6e00;fill-opacity:1" /></g></g><g
       id="g39"
       style="fill:#ff6e00;fill-opacity:1"><path
         d="M25.5,51.001c-0.237,0-0.479-0.043-0.714-0.133c-1.032-0.395-1.548-1.551-1.154-2.582l13-34    c0.395-1.031,1.551-1.55,2.583-1.154c1.032,0.395,1.548,1.551,1.154,2.582l-13,34C27.063,50.511,26.305,51.001,25.5,51.001z"
         fill="#FFFFFF"
         id="path41"
         style="fill:#ff6e00;fill-opacity:1" /></g></g><g
     id="Layer_2" /></svg>