<?xml version="1.0" encoding="UTF-8" standalone="no"?>
<svg
   xmlns:dc="http://purl.org/dc/elements/1.1/"
   xmlns:cc="http://creativecommons.org/ns#"
   xmlns:rdf="http://www.w3.org/1999/02/22-rdf-syntax-ns#"
   xmlns:svg="http://www.w3.org/2000/svg"
   xmlns="http://www.w3.org/2000/svg"
   xmlns:sodipodi="http://sodipodi.sourceforge.net/DTD/sodipodi-0.dtd"
   xmlns:inkscape="http://www.inkscape.org/namespaces/inkscape"
   fill="#000000"
   height="48"
   viewBox="0 0 24 24"
   width="48"
   id="svg2"
   version="1.1"
   inkscape:version="0.91 r13725"
   sodipodi:docname="icon.svg">
  <metadata
     id="metadata12">
    <rdf:RDF>
      <cc:Work
         rdf:about="">
        <dc:format>image/svg+xml</dc:format>
        <dc:type
           rdf:resource="http://purl.org/dc/dcmitype/StillImage" />
      </cc:Work>
    </rdf:RDF>
  </metadata>
  <defs
     id="defs10" />
  <sodipodi:namedview
     pagecolor="#ffffff"
     bordercolor="#666666"
     borderopacity="1"
     objecttolerance="10"
     gridtolerance="10"
     guidetolerance="10"
     inkscape:pageopacity="0"
     inkscape:pageshadow="2"
     inkscape:window-width="1060"
     inkscape:window-height="853"
     id="namedview8"
     showgrid="false"
     inkscape:zoom="4.9166667"
     inkscape:cx="-39.040363"
     inkscape:cy="14.237288"
     inkscape:window-x="38"
     inkscape:window-y="213"
     inkscape:window-maximized="0"
     inkscape:current-layer="svg2" />
  <path
     d="M0 0h24v24H0z"
     fill="none"
     id="path4" />
  <path
     d="m 20.435028,3.1932203 -5.006554,0 C 14.925423,1.9211525 13.607909,1 12.050847,1 10.493786,1 9.1762707,1.9211525 8.6732203,3.1932203 l -5.0065537,0 c -1.3175141,0 -2.3954803,0.9869492 -2.3954803,2.1932204 l 0,15.3525423 c 0,1.206271 1.0779662,2.19322 2.3954803,2.19322 l 16.7683614,0 c 1.317515,0 2.395481,-0.986949 2.395481,-2.19322 l 0,-15.3525423 c 0,-1.2062712 -1.077966,-2.1932204 -2.395481,-2.1932204 z m -8.384181,0 c 0.658759,0 1.197741,0.4934746 1.197741,1.0966102 0,0.6031356 -0.538982,1.0966102 -1.197741,1.0966102 -0.658757,0 -1.19774,-0.4934746 -1.19774,-1.0966102 0,-0.6031356 0.538983,-1.0966102 1.19774,-1.0966102 z M 9.6553672,18.545763 4.8644067,14.159322 6.5532204,12.613102 9.6553672,15.442356 17.548474,8.2156949 19.237286,9.7728814 9.6553672,18.545763 Z"
     id="path6"
     style="fill:#f57924;fill-opacity:1"
     inkscape:connector-curvature="0" />
</svg>
