<?xml version="1.0" encoding="UTF-8" standalone="no"?>
<svg
   xmlns:dc="http://purl.org/dc/elements/1.1/"
   xmlns:cc="http://creativecommons.org/ns#"
   xmlns:rdf="http://www.w3.org/1999/02/22-rdf-syntax-ns#"
   xmlns:svg="http://www.w3.org/2000/svg"
   xmlns="http://www.w3.org/2000/svg"
   xmlns:sodipodi="http://sodipodi.sourceforge.net/DTD/sodipodi-0.dtd"
   xmlns:inkscape="http://www.inkscape.org/namespaces/inkscape"
   fill="#000000"
   height="48"
   viewBox="0 0 24 24"
   width="48"
   id="svg2"
   version="1.1"
   inkscape:version="0.91 r13725"
   sodipodi:docname="icon.svg">
  <metadata
     id="metadata12">
    <rdf:RDF>
      <cc:Work
         rdf:about="">
        <dc:format>image/svg+xml</dc:format>
        <dc:type
           rdf:resource="http://purl.org/dc/dcmitype/StillImage" />
      </cc:Work>
    </rdf:RDF>
  </metadata>
  <defs
     id="defs10" />
  <sodipodi:namedview
     pagecolor="#ffffff"
     bordercolor="#666666"
     borderopacity="1"
     objecttolerance="10"
     gridtolerance="10"
     guidetolerance="10"
     inkscape:pageopacity="0"
     inkscape:pageshadow="2"
     inkscape:window-width="1483"
     inkscape:window-height="907"
     id="namedview8"
     showgrid="false"
     inkscape:zoom="4.9166667"
     inkscape:cx="-11.38983"
     inkscape:cy="24"
     inkscape:window-x="10"
     inkscape:window-y="34"
     inkscape:window-maximized="0"
     inkscape:current-layer="svg2" />
  <path
     d="M0 0h24v24H0z"
     fill="none"
     id="path4" />
  <path
     d="m 9.9758752,16.137909 1.5693228,1.585255 5.564971,-5.62147 -5.564971,-5.6214679 -1.5693228,1.5852542 2.8715258,2.9119207 -10.7626552,0 0,2.248588 10.7626552,0 -2.8715258,2.91192 z m 9.9167798,-14.1548582 -15.5819205,0 c -1.2354238,0 -2.2259887,1.0118644 -2.2259887,2.2485876 l 0,4.4971752 2.2259887,0 0,-4.4971752 15.5819205,0 0,15.7401136 -15.5819205,0 0,-4.497175 -2.2259887,0 0,4.497175 c 0,1.236723 0.9905649,2.248587 2.2259887,2.248587 l 15.5819205,0 c 1.224294,0 2.225989,-1.011864 2.225989,-2.248587 l 0,-15.7401136 c 0,-1.2367232 -1.001695,-2.2485876 -2.225989,-2.2485876 z"
     id="path6"
     style="fill:#74b140;fill-opacity:1"
     inkscape:connector-curvature="0" />
</svg>
