<?xml version="1.0" encoding="UTF-8" standalone="no"?>
<svg
   xmlns:dc="http://purl.org/dc/elements/1.1/"
   xmlns:cc="http://creativecommons.org/ns#"
   xmlns:rdf="http://www.w3.org/1999/02/22-rdf-syntax-ns#"
   xmlns:svg="http://www.w3.org/2000/svg"
   xmlns="http://www.w3.org/2000/svg"
   xmlns:sodipodi="http://sodipodi.sourceforge.net/DTD/sodipodi-0.dtd"
   xmlns:inkscape="http://www.inkscape.org/namespaces/inkscape"
   enable-background="new 0 0 64 64"
   height="64px"
   version="1.1"
   viewBox="0 0 64 64"
   width="64px"
   xml:space="preserve"
   id="svg2"
   inkscape:version="0.91 r13725"
   sodipodi:docname="image.svg"><metadata
     id="metadata52"><rdf:RDF><cc:Work
         rdf:about=""><dc:format>image/svg+xml</dc:format><dc:type
           rdf:resource="http://purl.org/dc/dcmitype/StillImage" /></cc:Work></rdf:RDF></metadata><defs
     id="defs50" /><sodipodi:namedview
     pagecolor="#ffffff"
     bordercolor="#666666"
     borderopacity="1"
     objecttolerance="10"
     gridtolerance="10"
     guidetolerance="10"
     inkscape:pageopacity="0"
     inkscape:pageshadow="2"
     inkscape:window-width="694"
     inkscape:window-height="480"
     id="namedview48"
     showgrid="false"
     inkscape:zoom="3.6875"
     inkscape:cx="32"
     inkscape:cy="32"
     inkscape:window-x="10"
     inkscape:window-y="34"
     inkscape:window-maximized="0"
     inkscape:current-layer="Layer_1" /><g
     id="Layer_1"><g
       id="g5"
       style="fill:#999999"><circle
         cx="32"
         cy="32"
         fill="#E0995E"
         r="32"
         id="circle7"
         style="fill:#999999" /></g><g
       opacity="0.2"
       id="g9"><g
         id="g11"><polygon
           fill="#231F20"
           points="48,26 48,18 16,18 16,26 16,50 48,50    "
           id="polygon13" /></g><g
         id="g15"><path
           d="M48,14H16c-2.209,0-4,1.791-4,4v8v24c0,2.209,1.791,4,4,4h32c2.209,0,4-1.791,4-4V26v-8     C52,15.791,50.209,14,48,14z"
           fill="#231F20"
           id="path17" /></g></g><g
       id="g19"><g
         id="g21"><path
           d="M16,50c-1.103,0-2-0.897-2-2V16c0-1.103,0.897-2,2-2h32c1.103,0,2,0.897,2,2v32c0,1.103-0.897,2-2,2H16z"
           fill="#77B3D4"
           id="path23" /></g><g
         id="g25"><path
           d="M48,16v8v24H16V24v-8H48 M48,12H16c-2.209,0-4,1.791-4,4v8v24c0,2.209,1.791,4,4,4h32     c2.209,0,4-1.791,4-4V24v-8C52,13.791,50.209,12,48,12L48,12z"
           fill="#FFFFFF"
           id="path27" /></g></g><g
       id="g29"><rect
         fill="#FFFFFF"
         height="4"
         width="32"
         x="16"
         y="44"
         id="rect31" /></g><g
       id="g33"><g
         id="g35"><path
           d="M13.99,44h34.896v-2.921c0,0-1.706-2.977-3.286-4.843c-1.176-1.388-2.932-1.78-4.464-0.076l-2.752,2.643     l-5.999-7.629c-2.234-2.841-5.89-2.841-8.124,0L13.99,44z"
           fill="#4F5D73"
           id="path37" /></g></g><g
       id="g39"><circle
         cx="40"
         cy="24"
         fill="#F5CF87"
         r="3"
         id="circle41" /></g><g
       id="g43"><path
         d="M48,16v8v24H16V24v-8H48 M48,12H16c-2.209,0-4,1.791-4,4v8v24c0,2.209,1.791,4,4,4h32c2.209,0,4-1.791,4-4    V24v-8C52,13.791,50.209,12,48,12L48,12z"
         fill="#FFFFFF"
         id="path45" /></g></g><g
     id="Layer_2" /></svg>