<?xml version="1.0" encoding="UTF-8" standalone="no"?>
<svg
   xmlns:dc="http://purl.org/dc/elements/1.1/"
   xmlns:cc="http://creativecommons.org/ns#"
   xmlns:rdf="http://www.w3.org/1999/02/22-rdf-syntax-ns#"
   xmlns:svg="http://www.w3.org/2000/svg"
   xmlns="http://www.w3.org/2000/svg"
   xmlns:sodipodi="http://sodipodi.sourceforge.net/DTD/sodipodi-0.dtd"
   xmlns:inkscape="http://www.inkscape.org/namespaces/inkscape"
   enable-background="new 0 0 64 64"
   height="64px"
   version="1.1"
   viewBox="0 0 64 64"
   width="64px"
   xml:space="preserve"
   id="svg2"
   inkscape:version="0.91 r13725"
   sodipodi:docname="calc.svg"><metadata
     id="metadata72"><rdf:RDF><cc:Work
         rdf:about=""><dc:format>image/svg+xml</dc:format><dc:type
           rdf:resource="http://purl.org/dc/dcmitype/StillImage" /></cc:Work></rdf:RDF></metadata><defs
     id="defs70" /><sodipodi:namedview
     pagecolor="#ffffff"
     bordercolor="#666666"
     borderopacity="1"
     objecttolerance="10"
     gridtolerance="10"
     guidetolerance="10"
     inkscape:pageopacity="0"
     inkscape:pageshadow="2"
     inkscape:window-width="1123"
     inkscape:window-height="480"
     id="namedview68"
     showgrid="false"
     inkscape:zoom="3.6875"
     inkscape:cx="-1.0847458"
     inkscape:cy="32"
     inkscape:window-x="0"
     inkscape:window-y="24"
     inkscape:window-maximized="0"
     inkscape:current-layer="Layer_1" /><g
     id="Layer_1"><g
       id="g5"
       style="fill:#999999"><circle
         cx="31.833"
         cy="32"
         fill="#4F5D73"
         r="32"
         id="circle7"
         style="fill:#999999" /></g><g
       opacity="0.2"
       id="g9"><g
         id="g11"><circle
           cx="44"
           cy="39"
           fill="#231F20"
           r="2"
           id="circle13" /></g><g
         id="g15"><circle
           cx="44"
           cy="51"
           fill="#231F20"
           r="2"
           id="circle17" /></g><g
         id="g19"><path
           d="M26,22h-4v-4c0-1.105-0.895-2-2-2s-2,0.895-2,2v4h-4c-1.105,0-2,0.895-2,2c0,1.104,0.895,2,2,2h4v4     c0,1.104,0.895,2,2,2s2-0.896,2-2v-4h4c1.105,0,2-0.896,2-2C28,22.895,27.105,22,26,22z"
           fill="#231F20"
           id="path21" /></g><g
         id="g23"><path
           d="M38,26h12c1.105,0,2-0.896,2-2c0-1.105-0.895-2-2-2H38c-1.105,0-2,0.895-2,2C36,25.104,36.895,26,38,26z"
           fill="#231F20"
           id="path25" /></g><g
         id="g27"><path
           d="M50,43H38c-1.105,0-2,0.895-2,2c0,1.104,0.895,2,2,2h12c1.105,0,2-0.896,2-2C52,43.895,51.105,43,50,43z"
           fill="#231F20"
           id="path29" /></g><g
         id="g31"><path
           d="M26.828,39.172c-0.781-0.781-2.047-0.781-2.828,0l-4,4l-4-4c-0.781-0.781-2.047-0.781-2.828,0     c-0.781,0.781-0.781,2.047,0,2.828l4,4l-4,4c-0.781,0.781-0.781,2.047,0,2.828s2.047,0.781,2.828,0l4-4l4,4     c0.781,0.781,2.047,0.781,2.828,0s0.781-2.047,0-2.828l-4-4l4-4C27.609,41.219,27.609,39.953,26.828,39.172z"
           fill="#231F20"
           id="path33" /></g></g><g
       id="g35"><circle
         cx="44"
         cy="37"
         fill="#E0E0D1"
         r="2"
         id="circle37" /></g><g
       id="g39"><circle
         cx="44"
         cy="49"
         fill="#E0E0D1"
         r="2"
         id="circle41" /></g><g
       id="g43"><path
         d="M28,22c0,1.105-0.895,2-2,2H14c-1.105,0-2-0.895-2-2l0,0c0-1.105,0.895-2,2-2h12    C27.105,20,28,20.895,28,22L28,22z"
         fill="#F5CF87"
         id="path45" /></g><g
       id="g47"><path
         d="M52,22c0,1.105-0.895,2-2,2H38c-1.105,0-2-0.895-2-2l0,0c0-1.105,0.895-2,2-2h12    C51.105,20,52,20.895,52,22L52,22z"
         fill="#E0995E"
         id="path49" /></g><g
       id="g51"><path
         d="M20,30c-1.105,0-2-0.895-2-2V16c0-1.105,0.895-2,2-2l0,0c1.105,0,2,0.895,2,2v12    C22,29.105,21.105,30,20,30L20,30z"
         fill="#F5CF87"
         id="path53" /></g><g
       id="g55"><path
         d="M52,43c0,1.105-0.895,2-2,2H38c-1.105,0-2-0.895-2-2l0,0c0-1.105,0.895-2,2-2h12    C51.105,41,52,41.895,52,43L52,43z"
         fill="#E0E0D1"
         id="path57" /></g><g
       id="g59"><path
         d="M26.828,50.828c-0.781,0.781-2.047,0.781-2.828,0L13.172,40c-0.781-0.781-0.781-2.047,0-2.828l0,0    c0.781-0.781,2.047-0.781,2.828,0L26.828,48C27.609,48.781,27.609,50.047,26.828,50.828L26.828,50.828z"
         fill="#76C2AF"
         id="path61" /></g><g
       id="g63"><path
         d="M13.172,50.828c-0.781-0.781-0.781-2.047,0-2.828L24,37.172c0.781-0.781,2.047-0.781,2.828,0l0,0    c0.781,0.781,0.781,2.047,0,2.828L16,50.828C15.219,51.609,13.953,51.609,13.172,50.828L13.172,50.828z"
         fill="#76C2AF"
         id="path65" /></g></g><g
     id="Layer_2" /></svg>