<?xml version="1.0" encoding="UTF-8" standalone="no"?>
<svg
   xmlns:dc="http://purl.org/dc/elements/1.1/"
   xmlns:cc="http://creativecommons.org/ns#"
   xmlns:rdf="http://www.w3.org/1999/02/22-rdf-syntax-ns#"
   xmlns:svg="http://www.w3.org/2000/svg"
   xmlns="http://www.w3.org/2000/svg"
   xmlns:sodipodi="http://sodipodi.sourceforge.net/DTD/sodipodi-0.dtd"
   xmlns:inkscape="http://www.inkscape.org/namespaces/inkscape"
   enable-background="new 0 0 64 64"
   height="64px"
   version="1.1"
   viewBox="0 0 64 64"
   width="64px"
   xml:space="preserve"
   id="svg2"
   inkscape:version="0.91 r13725"
   sodipodi:docname="document.svg"><metadata
     id="metadata54"><rdf:RDF><cc:Work
         rdf:about=""><dc:format>image/svg+xml</dc:format><dc:type
           rdf:resource="http://purl.org/dc/dcmitype/StillImage" /></cc:Work></rdf:RDF></metadata><defs
     id="defs52" /><sodipodi:namedview
     pagecolor="#ffffff"
     bordercolor="#666666"
     borderopacity="1"
     objecttolerance="10"
     gridtolerance="10"
     guidetolerance="10"
     inkscape:pageopacity="0"
     inkscape:pageshadow="2"
     inkscape:window-width="1010"
     inkscape:window-height="801"
     id="namedview50"
     showgrid="false"
     inkscape:zoom="3.6875"
     inkscape:cx="-8.6779661"
     inkscape:cy="32"
     inkscape:window-x="10"
     inkscape:window-y="34"
     inkscape:window-maximized="0"
     inkscape:current-layer="g9" /><g
     id="Layer_1"><g
       id="g5"
       style="fill:#999999"><circle
         cx="32"
         cy="32"
         fill="#E0995E"
         r="32"
         id="circle7"
         style="fill:#999999" /></g><g
       id="g9"><g
         id="g11"
         style="fill:#ffffff;fill-opacity:1"><g
           opacity="0.2"
           id="g13"
           style="fill:#ffffff;fill-opacity:1"><path
             d="M36,23v-9H19c-1.657,0-3,1.343-3,3v34c0,1.657,1.343,3,3,3h26c1.657,0,3-1.343,3-3V26h-9      C37.343,26,36,24.657,36,23z"
             fill="#231F20"
             id="path15"
             style="fill:#ffffff;fill-opacity:1" /></g><g
           id="g17"
           style="fill:#ffffff;fill-opacity:1"><path
             d="M36,21v-9H19c-1.657,0-3,1.343-3,3v34c0,1.657,1.343,3,3,3h26c1.657,0,3-1.343,3-3V24h-9      C37.343,24,36,22.657,36,21z"
             fill="#E0E0D1"
             id="path19"
             style="fill:#ffffff;fill-opacity:1" /></g><g
           opacity="0.2"
           id="g21"
           style="fill:#ffffff;fill-opacity:1"><polygon
             fill="#231F20"
             points="37.016,23.294 48,33 48,24     "
             id="polygon23"
             style="fill:#ffffff;fill-opacity:1" /></g><g
           id="g25"
           style="fill:#ffffff;fill-opacity:1"><path
             d="M36,12v9c0,1.657,1.343,3,3,3h9L36,12z"
             fill="#FFFFFF"
             id="path27"
             style="fill:#ffffff;fill-opacity:1" /></g></g><g
         opacity="0.2"
         id="g29"><rect
           fill="#231F20"
           height="2"
           width="9.625"
           x="22"
           y="22"
           id="rect31" /></g><g
         opacity="0.2"
         id="g33"><rect
           fill="#231F20"
           height="2"
           width="20"
           x="22"
           y="32"
           id="rect35" /></g><g
         opacity="0.2"
         id="g37"><rect
           fill="#231F20"
           height="2"
           width="20"
           x="22"
           y="27"
           id="rect39" /></g><g
         opacity="0.2"
         id="g41"><rect
           fill="#231F20"
           height="2"
           width="20"
           x="22"
           y="37"
           id="rect43" /></g><g
         opacity="0.2"
         id="g45"><rect
           fill="#231F20"
           height="2"
           width="20"
           x="22"
           y="42"
           id="rect47" /></g></g></g><g
     id="Layer_2" /></svg>