<?xml version="1.0" encoding="UTF-8" standalone="no"?>
<svg
   xmlns:dc="http://purl.org/dc/elements/1.1/"
   xmlns:cc="http://creativecommons.org/ns#"
   xmlns:rdf="http://www.w3.org/1999/02/22-rdf-syntax-ns#"
   xmlns:svg="http://www.w3.org/2000/svg"
   xmlns="http://www.w3.org/2000/svg"
   xmlns:sodipodi="http://sodipodi.sourceforge.net/DTD/sodipodi-0.dtd"
   xmlns:inkscape="http://www.inkscape.org/namespaces/inkscape"
   fill="#000000"
   height="48"
   viewBox="0 0 24 24"
   width="48"
   id="svg2"
   version="1.1"
   inkscape:version="0.91 r13725"
   sodipodi:docname="icon.svg">
  <metadata
     id="metadata12">
    <rdf:RDF>
      <cc:Work
         rdf:about="">
        <dc:format>image/svg+xml</dc:format>
        <dc:type
           rdf:resource="http://purl.org/dc/dcmitype/StillImage" />
      </cc:Work>
    </rdf:RDF>
  </metadata>
  <defs
     id="defs10" />
  <sodipodi:namedview
     pagecolor="#ffffff"
     bordercolor="#666666"
     borderopacity="1"
     objecttolerance="10"
     gridtolerance="10"
     guidetolerance="10"
     inkscape:pageopacity="0"
     inkscape:pageshadow="2"
     inkscape:window-width="742"
     inkscape:window-height="480"
     id="namedview8"
     showgrid="false"
     inkscape:zoom="4.9166667"
     inkscape:cx="23.79661"
     inkscape:cy="24"
     inkscape:window-x="10"
     inkscape:window-y="34"
     inkscape:window-maximized="0"
     inkscape:current-layer="svg2" />
  <path
     d="m 12,10.765255 c -0.653424,0 -1.178305,0.527372 -1.178305,1.183897 0,0.656526 0.524881,1.183899 1.178305,1.183899 0.653424,0 1.178305,-0.527373 1.178305,-1.183899 0,-0.656525 -0.524881,-1.183897 -1.178305,-1.183897 z m 0,-9.5788143 c -5.9129492,0 -10.7118644,4.8216949 -10.7118644,10.7627113 0,5.941018 4.7989152,10.762712 10.7118644,10.762712 5.912949,0 10.711864,-4.821694 10.711864,-10.762712 C 22.711864,6.0081356 17.912949,1.1864407 12,1.1864407 Z M 14.345898,14.306186 5.5728814,18.40678 9.6541016,9.5921187 18.427119,5.4915254 14.345898,14.306186 Z"
     id="path4"
     style="fill:#000080"
     inkscape:connector-curvature="0" />
  <path
     d="M0 0h24v24H0z"
     fill="none"
     id="path6" />
</svg>
