<?xml version="1.0" encoding="UTF-8" standalone="no"?>
<svg
   xmlns:dc="http://purl.org/dc/elements/1.1/"
   xmlns:cc="http://creativecommons.org/ns#"
   xmlns:rdf="http://www.w3.org/1999/02/22-rdf-syntax-ns#"
   xmlns:svg="http://www.w3.org/2000/svg"
   xmlns="http://www.w3.org/2000/svg"
   xmlns:sodipodi="http://sodipodi.sourceforge.net/DTD/sodipodi-0.dtd"
   xmlns:inkscape="http://www.inkscape.org/namespaces/inkscape"
   enable-background="new 0 0 64 64"
   height="64px"
   id="Layer_1"
   version="1.1"
   viewBox="0 0 64 64"
   width="64px"
   xml:space="preserve"
   inkscape:version="0.91 r13725"
   sodipodi:docname="archive.svg"><metadata
     id="metadata33"><rdf:RDF><cc:Work
         rdf:about=""><dc:format>image/svg+xml</dc:format><dc:type
           rdf:resource="http://purl.org/dc/dcmitype/StillImage" /><dc:title /></cc:Work></rdf:RDF></metadata><defs
     id="defs31" /><sodipodi:namedview
     pagecolor="#ffffff"
     bordercolor="#666666"
     borderopacity="1"
     objecttolerance="10"
     gridtolerance="10"
     guidetolerance="10"
     inkscape:pageopacity="0"
     inkscape:pageshadow="2"
     inkscape:window-width="1114"
     inkscape:window-height="851"
     id="namedview29"
     showgrid="false"
     inkscape:zoom="3.6875"
     inkscape:cx="-27.871708"
     inkscape:cy="32"
     inkscape:window-x="10"
     inkscape:window-y="34"
     inkscape:window-maximized="0"
     inkscape:current-layer="g4167" /><circle
     cx="32"
     cy="32"
     fill="#E0995E"
     r="32"
     id="circle3"
     style="fill:#999999" /><g
     style="fill:#000000"
     id="g4167"
     transform="matrix(2,0,0,2,7.4576271,9.3559322)"><path
       style="fill:#ffe255;fill-opacity:1"
       id="path4"
       d="M 20.54,5.23 19.15,3.55 C 18.88,3.21 18.47,3 18,3 L 6,3 C 5.53,3 5.12,3.21 4.84,3.55 L 3.46,5.23 C 3.17,5.57 3,6.02 3,6.5 L 3,19 c 0,1.1 0.9,2 2,2 l 14,0 c 1.1,0 2,-0.9 2,-2 L 21,6.5 C 21,6.02 20.83,5.57 20.54,5.23 Z M 12,17.5 6.5,12 l 3.5,0 0,-2 4,0 0,2 3.5,0 -5.5,5.5 z M 5.12,5 5.93,4 l 12,0 0.94,1 -13.75,0 z"
       inkscape:connector-curvature="0" /><path
       id="path6"
       d="M 0,0 24,0 24,24 0,24 Z"
       inkscape:connector-curvature="0"
       style="fill:none" /></g></svg>