<?xml version="1.0" encoding="UTF-8" standalone="no"?>
<svg
   xmlns:dc="http://purl.org/dc/elements/1.1/"
   xmlns:cc="http://creativecommons.org/ns#"
   xmlns:rdf="http://www.w3.org/1999/02/22-rdf-syntax-ns#"
   xmlns:svg="http://www.w3.org/2000/svg"
   xmlns="http://www.w3.org/2000/svg"
   xmlns:sodipodi="http://sodipodi.sourceforge.net/DTD/sodipodi-0.dtd"
   xmlns:inkscape="http://www.inkscape.org/namespaces/inkscape"
   enable-background="new 0 0 64 64"
   height="64px"
   version="1.1"
   viewBox="0 0 64 64"
   width="64px"
   xml:space="preserve"
   id="svg2"
   inkscape:version="0.91 r13725"
   sodipodi:docname="database.svg"><metadata
     id="metadata38"><rdf:RDF><cc:Work
         rdf:about=""><dc:format>image/svg+xml</dc:format><dc:type
           rdf:resource="http://purl.org/dc/dcmitype/StillImage" /></cc:Work></rdf:RDF></metadata><defs
     id="defs36" /><sodipodi:namedview
     pagecolor="#ffffff"
     bordercolor="#666666"
     borderopacity="1"
     objecttolerance="10"
     gridtolerance="10"
     guidetolerance="10"
     inkscape:pageopacity="0"
     inkscape:pageshadow="2"
     inkscape:window-width="694"
     inkscape:window-height="480"
     id="namedview34"
     showgrid="false"
     inkscape:zoom="3.6875"
     inkscape:cx="32"
     inkscape:cy="32"
     inkscape:window-x="0"
     inkscape:window-y="24"
     inkscape:window-maximized="0"
     inkscape:current-layer="Layer_1" /><g
     id="Layer_1"><g
       id="g5"
       style="fill:#999999"><circle
         cx="32"
         cy="32"
         fill="#E0E0D1"
         r="32"
         id="circle7"
         style="fill:#999999" /></g><g
       opacity="0.2"
       id="g9"><path
         d="M33.752,53.565c-0.968,0.581-2.537,0.581-3.504,0L12.726,43.051c-0.968-0.581-0.968-1.522,0-2.103    l17.522-10.513c0.968-0.581,2.537-0.581,3.504,0l17.522,10.513c0.968,0.581,0.968,1.522,0,2.103L33.752,53.565z"
         fill="#231F20"
         id="path11" /></g><g
       id="g13"><path
         d="M33.752,51.565c-0.968,0.581-2.537,0.581-3.504,0L12.726,41.051c-0.968-0.581-0.968-1.522,0-2.103    l17.522-10.513c0.968-0.581,2.537-0.581,3.504,0l17.522,10.513c0.968,0.581,0.968,1.522,0,2.103L33.752,51.565z"
         fill="#C75C5C"
         id="path15" /></g><g
       opacity="0.2"
       id="g17"><path
         d="M33.752,45.565c-0.968,0.581-2.537,0.581-3.504,0L12.726,35.051c-0.968-0.581-0.968-1.522,0-2.103    l17.522-10.513c0.968-0.581,2.537-0.581,3.504,0l17.522,10.513c0.968,0.581,0.968,1.522,0,2.103L33.752,45.565z"
         fill="#231F20"
         id="path19" /></g><g
       id="g21"><path
         d="M33.752,43.565c-0.968,0.581-2.537,0.581-3.504,0L12.726,33.051c-0.968-0.581-0.968-1.522,0-2.103    l17.522-10.513c0.968-0.581,2.537-0.581,3.504,0l17.522,10.513c0.968,0.581,0.968,1.522,0,2.103L33.752,43.565z"
         fill="#76C2AF"
         id="path23" /></g><g
       opacity="0.2"
       id="g25"><path
         d="M33.752,37.565c-0.968,0.581-2.537,0.581-3.504,0L12.726,27.051c-0.968-0.581-0.968-1.522,0-2.103    l17.522-10.513c0.968-0.581,2.537-0.581,3.504,0l17.522,10.513c0.968,0.581,0.968,1.522,0,2.103L33.752,37.565z"
         fill="#231F20"
         id="path27" /></g><g
       id="g29"><path
         d="M33.752,35.565c-0.968,0.581-2.537,0.581-3.504,0L12.726,25.051c-0.968-0.581-0.968-1.522,0-2.103    l17.522-10.513c0.968-0.581,2.537-0.581,3.504,0l17.522,10.513c0.968,0.581,0.968,1.522,0,2.103L33.752,35.565z"
         fill="#4F5D73"
         id="path31" /></g></g><g
     id="Layer_2" /></svg>