<?xml version="1.0" ?><svg enable-background="new 0 0 64 64" height="64px" id="Layer_1" version="1.1" viewBox="0 0 64 64" width="64px" xml:space="preserve" xmlns="http://www.w3.org/2000/svg" xmlns:xlink="http://www.w3.org/1999/xlink"><circle cx="32" cy="32" fill="#E0E0D1" r="32"/><path d="M49.865,16.135c-1.933-1.933-13.04,6.04-19.874,12.874c-3.362,3.362-5.058,5.819-5.689,7.682  c-2.108-0.205-4.403,0.571-5.914,2.082c-0.968,0.968-1.498,2.041-1.894,3.202C15.733,44.206,15,47,12,48.99  c2.236,2.236,10.984,2.865,15.227-1.378c0.449-0.449,0.831-0.967,1.144-1.529c0.741-1.329,1.068-2.898,0.925-4.38  c1.864-0.627,4.325-2.324,7.695-5.694C43.825,29.175,51.798,18.068,49.865,16.135z" fill="#231F20" opacity="0.2"/><path d="M29.991,27.009c-6.834,6.834-6.807,9.941-4.874,11.874c1.933,1.933,5.04,1.96,11.874-4.874  c6.834-6.834,14.807-17.941,12.874-19.874S36.825,20.175,29.991,27.009z" fill="#E0995E"/><g><path d="M12,46.99c2.236,2.237,10.984,2.865,15.227-1.378c0.449-0.449,0.831-0.967,1.144-1.529   c-6.637-0.198-10.145-2.408-11.877-4.108C15.733,42.206,15,45,12,46.99z" fill="#C75C5C"/><path d="M27.757,36.243c-2.441-2.441-6.928-1.91-9.369,0.53c-0.968,0.968-1.498,2.041-1.894,3.202   c1.732,1.7,5.13,6.942,11.877,4.108C29.761,41.59,29.749,38.235,27.757,36.243z" fill="#4F5D73"/></g><path d="M16.495,39.975c0,0,4.022-0.764,5.938,2.059c1.917,2.823,5.938,2.049,5.938,2.049l-5.205,2.875l-5.208-3.792  L16.495,39.975z" fill="#C75C5C"/></svg>