<?xml version="1.0" encoding="UTF-8" standalone="no"?>
<svg
   xmlns:dc="http://purl.org/dc/elements/1.1/"
   xmlns:cc="http://creativecommons.org/ns#"
   xmlns:rdf="http://www.w3.org/1999/02/22-rdf-syntax-ns#"
   xmlns:svg="http://www.w3.org/2000/svg"
   xmlns="http://www.w3.org/2000/svg"
   xmlns:sodipodi="http://sodipodi.sourceforge.net/DTD/sodipodi-0.dtd"
   xmlns:inkscape="http://www.inkscape.org/namespaces/inkscape"
   enable-background="new 0 0 64 64"
   height="64px"
   id="Layer_1"
   version="1.1"
   viewBox="0 0 64 64"
   width="64px"
   xml:space="preserve"
   inkscape:version="0.91 r13725"
   sodipodi:docname="powerpoint.svg"><metadata
     id="metadata53"><rdf:RDF><cc:Work
         rdf:about=""><dc:format>image/svg+xml</dc:format><dc:type
           rdf:resource="http://purl.org/dc/dcmitype/StillImage" /></cc:Work></rdf:RDF></metadata><defs
     id="defs51" /><sodipodi:namedview
     pagecolor="#ffffff"
     bordercolor="#666666"
     borderopacity="1"
     objecttolerance="10"
     gridtolerance="10"
     guidetolerance="10"
     inkscape:pageopacity="0"
     inkscape:pageshadow="2"
     inkscape:window-width="1252"
     inkscape:window-height="807"
     id="namedview49"
     showgrid="false"
     inkscape:zoom="3.6875"
     inkscape:cx="-90.033898"
     inkscape:cy="32"
     inkscape:window-x="519"
     inkscape:window-y="144"
     inkscape:window-maximized="0"
     inkscape:current-layer="Layer_1" /><circle
     cx="32"
     cy="32"
     fill="#F5CF87"
     r="32"
     id="circle3"
     style="fill:#999999" /><g
     transform="matrix(0.51032478,0,0,0.53925355,7.761956,4.5591952)"
     id="g4"
     style="fill:#ffffff;fill-opacity:1"><path
       style="fill:#ffffff;fill-opacity:1"
       inkscape:connector-curvature="0"
       id="path6"
       d="M 96.863,81.328 96.576,80.685 88.728,61.56 c -0.94,-1.92 -1.532,-3.4 -3.921,-3.4 l -7.911,0 0,-2.773 c 2.653,-1.664 4.423,-4.606 4.423,-7.971 0,-3.362 -1.77,-6.304 -4.423,-7.969 l 0,-16.908 c 0,-2.828 -2.304,-5.127 -5.135,-5.127 l -61.376,0 c -2.832,0 -5.136,2.299 -5.136,5.127 l 0,42.789 c 0,2.829 2.304,5.129 5.136,5.129 l 46.902,0 0,19.939 29.24,0 8.513,-4.264 c 1.823,-0.816 2.643,-2.979 1.823,-4.804 z M 74.493,38.373 c -0.823,-0.235 -1.689,-0.369 -2.588,-0.369 -5.196,0 -9.411,4.214 -9.411,9.411 0,5.201 4.215,9.413 9.411,9.413 0.898,0 1.764,-0.134 2.588,-0.369 l 0,1.7 -13.063,0 -10.288,-5.84 -3.983,-9.653 C 46.586,40.979 44.88,39.99 43.174,40.246 l -7.637,-13.43 c -0.327,-0.578 -1.061,-0.778 -1.639,-0.451 -0.577,0.327 -0.779,1.062 -0.451,1.639 l 7.469,13.133 c -1.246,0.912 -1.835,2.553 -1.311,4.088 l 3.23,10.625 12.239,12.202 -44.689,0 c -1.507,0 -2.732,-1.223 -2.732,-2.726 l 0,-42.787 c 0,-1.501 1.225,-2.723 2.732,-2.723 l 61.377,0 c 1.506,0 2.731,1.222 2.731,2.723 l 0,15.834 z" /><g
       id="g8"
       style="fill:#ffffff;fill-opacity:1"><path
         style="fill:#ffffff;fill-opacity:1"
         inkscape:connector-curvature="0"
         id="path10"
         d="m 29.608,42.853 -15.27,0 c -0.664,0 -1.202,-0.538 -1.202,-1.202 l 0,-15.314 c 0,-0.664 0.538,-1.202 1.202,-1.202 l 15.271,0 c 0.664,0 1.202,0.538 1.202,1.202 l 0,15.314 c -0.001,0.665 -0.539,1.202 -1.203,1.202 z" /></g><g
       id="g12"
       style="fill:#ffffff;fill-opacity:1"><path
         style="fill:#ffffff;fill-opacity:1"
         inkscape:connector-curvature="0"
         id="path14"
         d="m 35.758,49.123 -21.42,0 c -0.943,0 -1.706,-0.764 -1.706,-1.707 0,-0.943 0.764,-1.707 1.706,-1.707 l 21.421,0 c 0.943,0 1.706,0.764 1.706,1.707 0,0.943 -0.764,1.707 -1.707,1.707 z" /></g><g
       id="g16"
       style="fill:#ffffff;fill-opacity:1"><path
         style="fill:#ffffff;fill-opacity:1"
         inkscape:connector-curvature="0"
         id="path18"
         d="m 25.223,56.428 -10.885,0 c -0.943,0 -1.707,-0.764 -1.707,-1.707 0,-0.943 0.764,-1.707 1.707,-1.707 l 10.886,0 c 0.943,0 1.707,0.764 1.707,1.707 -0.001,0.943 -0.765,1.707 -1.708,1.707 z" /></g></g></svg>