<?xml version="1.0" encoding="UTF-8" standalone="no"?>
<svg
   xmlns:dc="http://purl.org/dc/elements/1.1/"
   xmlns:cc="http://creativecommons.org/ns#"
   xmlns:rdf="http://www.w3.org/1999/02/22-rdf-syntax-ns#"
   xmlns:svg="http://www.w3.org/2000/svg"
   xmlns="http://www.w3.org/2000/svg"
   xmlns:xlink="http://www.w3.org/1999/xlink"
   xmlns:sodipodi="http://sodipodi.sourceforge.net/DTD/sodipodi-0.dtd"
   xmlns:inkscape="http://www.inkscape.org/namespaces/inkscape"
   enable-background="new 0 0 64 64"
   height="64px"
   version="1.1"
   viewBox="0 0 64 64"
   width="64px"
   xml:space="preserve"
   id="svg2"
   inkscape:version="0.91 r13725"
   sodipodi:docname="pdf.svg"><metadata
     id="metadata54"><rdf:RDF><cc:Work
         rdf:about=""><dc:format>image/svg+xml</dc:format><dc:type
           rdf:resource="http://purl.org/dc/dcmitype/StillImage" /><dc:title /></cc:Work></rdf:RDF></metadata><defs
     id="defs52"><linearGradient
       id="linearGradient585"><stop
         id="stop586"
         offset="0"
         style="stop-color:#5cb2ff;stop-opacity:1.0000;" /><stop
         id="stop587"
         offset="1"
         style="stop-color:#ffffff;stop-opacity:1.0000;" /></linearGradient><linearGradient
       id="linearGradient576"><stop
         id="stop577"
         offset="0"
         style="stop-color:#ffffff;stop-opacity:1.0000;" /><stop
         id="stop578"
         offset="1"
         style="stop-color:#370000;stop-opacity:0;" /></linearGradient><linearGradient
       id="linearGradient569"><stop
         id="stop570"
         offset="0"
         style="stop-color:#ff3a00;stop-opacity:1.0000;" /><stop
         id="stop571"
         offset="1"
         style="stop-color:#370000;stop-opacity:1.0000;" /></linearGradient><linearGradient
       id="linearGradient562"><stop
         id="stop563"
         offset="0"
         style="stop-color:#000000;stop-opacity:1.0000;" /><stop
         id="stop564"
         offset="1"
         style="stop-color:#ffffff;stop-opacity:1.0000;" /></linearGradient><linearGradient
       spreadMethod="pad"
       gradientTransform="scale(1.323326,0.755672)"
       gradientUnits="userSpaceOnUse"
       xlink:href="#linearGradient562"
       id="linearGradient565"
       y2="42.38868"
       x2="18.43610"
       y1="65.83048"
       x1="30.59172" /><linearGradient
       spreadMethod="pad"
       gradientTransform="scale(1.587744,0.629824)"
       gradientUnits="userSpaceOnUse"
       xlink:href="#linearGradient562"
       id="linearGradient567"
       y2="60.75286"
       x2="33.75964"
       y1="44.99675"
       x1="24.98748" /><linearGradient
       spreadMethod="pad"
       gradientUnits="objectBoundingBox"
       xlink:href="#linearGradient576"
       id="linearGradient568"
       y2="0.882814"
       x2="0.575539"
       y1="0.117275"
       x1="0.827341" /><radialGradient
       spreadMethod="pad"
       gradientTransform="scale(1.181249,0.846561)"
       gradientUnits="userSpaceOnUse"
       xlink:href="#linearGradient569"
       id="radialGradient573"
       fy="62.03484"
       fx="39.97719"
       r="2.879746"
       cy="62.03484"
       cx="39.97719" /><radialGradient
       xlink:href="#linearGradient576"
       id="radialGradient575" /><linearGradient
       spreadMethod="pad"
       gradientUnits="objectBoundingBox"
       xlink:href="#linearGradient562"
       id="linearGradient580"
       y2="1.259674"
       x2="0.539170"
       y1="-4.502178e-2"
       x1="0.489923" /><linearGradient
       spreadMethod="pad"
       gradientTransform="scale(1.107407,0.903010)"
       gradientUnits="userSpaceOnUse"
       xlink:href="#linearGradient585"
       id="linearGradient584"
       y2="55.26681"
       x2="34.33948"
       y1="112.4277"
       x1="38.96766" /><linearGradient
       spreadMethod="pad"
       gradientTransform="scale(0.777781,1.285709)"
       gradientUnits="userSpaceOnUse"
       xlink:href="#linearGradient585"
       id="linearGradient588"
       y2="44.95725"
       x2="21.00699"
       y1="70.60982"
       x1="18.57473" /><defs
       id="defs606"><linearGradient
         id="linearGradient612"><stop
           id="stop613"
           offset="0"
           style="stop-color:#7fa8e3;stop-opacity:0.7412;" /><stop
           id="stop614"
           offset="1"
           style="stop-color:#ffffff;stop-opacity:0;" /></linearGradient><linearGradient
         spreadMethod="pad"
         gradientUnits="userSpaceOnUse"
         xlink:href="#linearGradient612"
         id="linearGradient615"
         y2="68.04436"
         x2="35.75209"
         y1="5.367929"
         x1="50.64389" /></defs></defs><sodipodi:namedview
     pagecolor="#ffffff"
     bordercolor="#666666"
     borderopacity="1"
     objecttolerance="10"
     gridtolerance="10"
     guidetolerance="10"
     inkscape:pageopacity="0"
     inkscape:pageshadow="2"
     inkscape:window-width="1010"
     inkscape:window-height="801"
     id="namedview50"
     showgrid="false"
     inkscape:zoom="3.6875"
     inkscape:cx="-0.9504771"
     inkscape:cy="32"
     inkscape:window-x="571"
     inkscape:window-y="55"
     inkscape:window-maximized="0"
     inkscape:current-layer="g9" /><g
     id="Layer_1"><g
       id="g5"
       style="fill:#999999"><circle
         cx="32"
         cy="32"
         fill="#E0995E"
         r="32"
         id="circle7"
         style="fill:#999999" /></g><g
       id="g9"><g
         id="g4222"
         transform="matrix(0.46989294,0,0,0.55537315,10.104602,6.5354129)"><g
           style="font-size:12px;stroke:#000000"
           transform="matrix(3.327116,0.846263,-0.785857,3.106904,-7.997008,-41.23683)"
           id="g683"><path
             id="path684"
             d="m 33.7,30.3 c 0,0.3 0.3,0.6 0.6,0.6 0.3,0 0.6,-0.3 0.6,-0.6 0,-0.3 -0.3,-0.6 -0.6,-0.6 -0.3,0 -0.6,0.3 -0.6,0.6 z m -0.1,0 c 0,-0.4 0.3,-0.7 0.7,-0.7 0.4,0 0.7,0.3 0.7,0.7 0,0.4 -0.3,0.7 -0.7,0.7 -0.4,0 -0.7,-0.3 -0.7,-0.7 z"
             style="fill-rule:evenodd;stroke:none"
             inkscape:connector-curvature="0" /><g
             id="g685"><path
               id="path686"
               d="m 34,30.7 0,-0.7 0.3,0 c 0.1,0 0.1,0 0.1,0 0,0 0.1,0 0.1,0.1 0,0 0,0.1 0,0.1 0,0.1 0,0.1 -0.1,0.1 0,0 -0.1,0.1 -0.2,0.1 0,0 0,0 0.1,0 0,0 0.1,0.1 0.1,0.1 l 0.1,0.2 -0.1,0 -0.1,-0.2 c 0,0 -0.1,-0.1 -0.1,-0.1 0,0 0,0 0,0 0,0 0,0 0,0 0,0 0,0 -0.1,0 l -0.1,0 0,0.3 0,0 0,0 z m 0.1,-0.4 0.2,0 c 0,0 0.1,0 0.1,0 0,0 0,0 0.1,0 0,0 0,0 0,-0.1 0,0 0,-0.1 0,-0.1 0,0 -0.1,0 -0.1,0 l -0.2,0 0,0.2 -0.1,0 z"
               style="stroke:none"
               inkscape:connector-curvature="0" /></g></g><path
           sodipodi:nodetypes="cccccccccccccc"
           id="path724"
           d="m 10.662271,86.827431 c 5.774607,0.01979 8.015612,0.299847 15.775503,-4.101624 2.524443,-3.125164 10.361187,-10.11545 13.959758,-9.489919 4.692571,-1.414514 23.175281,-2.509137 23.580603,-1.82645 0.405162,0.682672 12.469811,8.967504 14.779587,8.975538 2.309951,0.0079 13.259194,-3.292625 9.21407,-12.435688 C 84.996996,63.715154 76.851751,61.643384 73.670323,58.226108 70.488881,54.808834 63.201549,40.204407 64.582852,33.600786 65.964138,26.997307 73.978329,7.8810784 64.884578,4.9884242 55.790829,2.0958006 51.839827,5.1480738 49.984352,11.341294 48.128845,17.534498 49.305226,31.163885 47.733219,33.951715 46.1611,36.739528 32.628039,60.537561 28.95268,62.500754 25.277336,64.463801 2.8358294,70.926688 1.669145,74.397221 c -1.16682901,3.470487 -2.7548746,10.890935 8.993126,12.43021 z"
           style="font-size:12px;fill:#000000;fill-opacity:1;fill-rule:evenodd;stroke:none;stroke-width:0.87190402"
           inkscape:connector-curvature="0" /><g
           style="font-size:12px;stroke:#000000"
           transform="matrix(3.327116,0.846263,-0.785857,3.106904,-7.997008,-41.70061)"
           id="g690"><path
             id="path691"
             d="m 22.6,10.7 c -2.5,2.2 8.4,21.9 11,16.9 2.9,-5.7 -26.1,6.3 -19.8,8 7.3,1.9 13.5,-29 8.8,-24.8 l 0,-0.1 z"
             style="fill:none;stroke:none"
             inkscape:connector-curvature="0" /><path
             id="path692"
             d="m 21.9,10.6 c -3,3.9 7.1,21.9 11.8,17.7 2.6,-2.3 -1.1,-3 -2.9,-2.7 -5,0.9 -10.1,3 -14.5,5.5 -0.9,0.5 -6.4,3.5 -3.7,5 3.1,1.7 6.1,-2.8 7.2,-4.8 2.9,-5 4.4,-11.3 4.9,-17.1 0.2,-1.8 0.1,-6 -2.7,-3.9 -0.9,0.7 -0.3,1.6 0.6,0.9 0.4,-0.3 0.3,5 0.2,5.5 -0.5,3.4 -1.4,6.7 -2.5,10 -1,2.7 -2.4,6.8 -5.1,8.2 -2.1,1.1 -1.5,-0.8 -0.5,-1.5 1.2,-0.9 2.6,-1.6 3.9,-2.2 2.8,-1.4 5.7,-2.5 8.7,-3.4 1.1,-0.4 2.3,-0.6 3.5,-0.8 1.9,-0.3 2,1.3 0.7,0.5 -2.6,-1.5 -4.4,-5.1 -5.8,-7.6 -0.9,-1.6 -4.2,-7 -2.8,-8.9 0.7,-0.9 -0.8,-0.9 -1.3,-0.3 l 0.3,-0.1 z"
             style="fill:#f8310e;stroke:none"
             inkscape:connector-curvature="0" /></g><path
           sodipodi:nodetypes="cccc"
           id="path725"
           d="M 54.206025,48.348806 45.87129,61.87757 c 0,0 13.113313,-0.431888 13.182196,-0.704158 0.06888,-0.272286 -4.916326,-12.552319 -4.847461,-12.824606 z"
           style="font-size:12px;fill:#fffffa;fill-opacity:0.99607801;fill-rule:evenodd;stroke:none;stroke-width:0.87190402"
           inkscape:connector-curvature="0" /></g></g></g><g
     id="Layer_2" /></svg>