<?xml version="1.0" encoding="utf-8"?>
<!-- Generator: Adobe Illustrator 21.1.0, SVG Export Plug-In . SVG Version: 6.00 Build 0)  -->
<svg version="1.1"
	 id="svg2" inkscape:version="0.91 r13725" sodipodi:docname="icon.svg" xmlns:cc="http://creativecommons.org/ns#" xmlns:dc="http://purl.org/dc/elements/1.1/" xmlns:inkscape="http://www.inkscape.org/namespaces/inkscape" xmlns:rdf="http://www.w3.org/1999/02/22-rdf-syntax-ns#" xmlns:sodipodi="http://sodipodi.sourceforge.net/DTD/sodipodi-0.dtd" xmlns:svg="http://www.w3.org/2000/svg"
	 xmlns="http://www.w3.org/2000/svg" xmlns:xlink="http://www.w3.org/1999/xlink" x="0px" y="0px" viewBox="0 0 48 48"
	 style="enable-background:new 0 0 48 48;" xml:space="preserve">
<style type="text/css">
	.st0{clip-path:url(#SVGID_2_);fill:#CC9966;}
</style>
<sodipodi:namedview  bordercolor="#666666" borderopacity="1" gridtolerance="10" guidetolerance="10" id="namedview12" inkscape:current-layer="svg2" inkscape:cx="-16.116202" inkscape:cy="24" inkscape:pageopacity="0" inkscape:pageshadow="2" inkscape:window-height="780" inkscape:window-maximized="0" inkscape:window-width="1411" inkscape:window-x="12" inkscape:window-y="145" inkscape:zoom="4.9166667" objecttolerance="10" pagecolor="#ffffff" showgrid="false">
	</sodipodi:namedview>
<g>
	<defs>
		<rect id="SVGID_1_" x="0" y="-8.2" width="48" height="59.2"/>
	</defs>
	<clipPath id="SVGID_2_">
		<use xlink:href="#SVGID_1_"  style="overflow:visible;"/>
	</clipPath>
	<path id="path10" inkscape:connector-curvature="0" class="st0" d="M43.2,3c-2.4-0.9-5-1.3-7.5-1.3c-4.2,0-8.6,1.1-11.7,3.9
		c-3.1-2.9-7.6-3.9-11.7-3.9S3.7,2.7,0.6,5.6v38.5c0,0.7,0.5,1.3,1.1,1.3c0.2,0,0.3-0.1,0.5-0.1c2.9-1.7,7-2.9,10.1-2.9
		c4.2,0,8.6,1.1,11.7,3.9c2.9-2.2,8.1-3.9,11.7-3.9c3.5,0,7.1,0.8,10.1,2.8c0.2,0.1,0.3,0.1,0.5,0.1c0.5,0,1.1-0.7,1.1-1.3V5.6
		C46.1,4.4,44.8,3.7,43.2,3z M43.2,38.4c-2.3-0.9-4.9-1.3-7.5-1.3c-3.6,0-8.8,1.7-11.7,3.9V10.9c2.9-2.2,8.1-3.9,11.7-3.9
		c2.6,0,5.1,0.4,7.5,1.3V38.4z"/>
</g>
</svg>
