<?xml version="1.0" encoding="UTF-8" standalone="no"?>
<svg
   xmlns:dc="http://purl.org/dc/elements/1.1/"
   xmlns:cc="http://creativecommons.org/ns#"
   xmlns:rdf="http://www.w3.org/1999/02/22-rdf-syntax-ns#"
   xmlns:svg="http://www.w3.org/2000/svg"
   xmlns="http://www.w3.org/2000/svg"
   xmlns:sodipodi="http://sodipodi.sourceforge.net/DTD/sodipodi-0.dtd"
   xmlns:inkscape="http://www.inkscape.org/namespaces/inkscape"
   fill="#000000"
   height="48"
   viewBox="0 0 24 24"
   width="48"
   id="svg2"
   version="1.1"
   inkscape:version="0.91 r13725"
   sodipodi:docname="icon.svg">
  <metadata
     id="metadata12">
    <rdf:RDF>
      <cc:Work
         rdf:about="">
        <dc:format>image/svg+xml</dc:format>
        <dc:type
           rdf:resource="http://purl.org/dc/dcmitype/StillImage" />
      </cc:Work>
    </rdf:RDF>
  </metadata>
  <defs
     id="defs10" />
  <sodipodi:namedview
     pagecolor="#ffffff"
     bordercolor="#666666"
     borderopacity="1"
     objecttolerance="10"
     gridtolerance="10"
     guidetolerance="10"
     inkscape:pageopacity="0"
     inkscape:pageshadow="2"
     inkscape:window-width="1617"
     inkscape:window-height="990"
     id="namedview8"
     showgrid="false"
     inkscape:zoom="4.9166667"
     inkscape:cx="-47.898305"
     inkscape:cy="24"
     inkscape:window-x="10"
     inkscape:window-y="34"
     inkscape:window-maximized="0"
     inkscape:current-layer="svg2" />
  <path
     d="M0 0h24v24H0z"
     fill="none"
     id="path4" />
  <path
     d="m 10.034407,15.924519 1.601186,1.561357 5.677967,-5.536724 -5.677967,-5.5367225 -1.601186,1.5613558 2.929831,2.8680217 -10.9811872,0 0,2.21469 10.9811872,0 -2.929831,2.868022 z m 10.118136,-13.9414682 -15.8983057,0 c -1.2605085,0 -2.2711865,0.9966102 -2.2711865,2.2146893 l 0,4.4293786 2.2711865,0 0,-4.4293786 15.8983057,0 0,15.5028259 -15.8983057,0 0,-4.429379 -2.2711865,0 0,4.429379 c 0,1.218078 1.010678,2.214688 2.2711865,2.214688 l 15.8983057,0 c 1.249152,0 2.271186,-0.99661 2.271186,-2.214688 l 0,-15.5028259 c 0,-1.2180791 -1.022034,-2.2146893 -2.271186,-2.2146893 z"
     id="path6"
     style="fill:#41a0e0;fill-opacity:1"
     inkscape:connector-curvature="0" />
</svg>
