<?xml version="1.0" encoding="UTF-8" standalone="no"?>
<!-- Generator: Adobe Illustrator 21.1.0, SVG Export Plug-In . SVG Version: 6.00 Build 0)  -->

<svg
   xmlns:dc="http://purl.org/dc/elements/1.1/"
   xmlns:cc="http://creativecommons.org/ns#"
   xmlns:rdf="http://www.w3.org/1999/02/22-rdf-syntax-ns#"
   xmlns:svg="http://www.w3.org/2000/svg"
   xmlns="http://www.w3.org/2000/svg"
   xmlns:sodipodi="http://sodipodi.sourceforge.net/DTD/sodipodi-0.dtd"
   xmlns:inkscape="http://www.inkscape.org/namespaces/inkscape"
   version="1.1"
   id="svg2"
   inkscape:version="0.91 r13725"
   sodipodi:docname="icon.svg"
   x="0px"
   y="0px"
   viewBox="0 0 48 48"
   style="enable-background:new 0 0 48 48;"
   xml:space="preserve"><metadata
     id="metadata10"><rdf:RDF><cc:Work
         rdf:about=""><dc:format>image/svg+xml</dc:format><dc:type
           rdf:resource="http://purl.org/dc/dcmitype/StillImage" /></cc:Work></rdf:RDF></metadata><defs
     id="defs8" /><style
     type="text/css"
     id="style3">
	.st0{fill:none;}
	.st1{fill:#33CCCC;}
</style><sodipodi:namedview
     bordercolor="#666666"
     borderopacity="1"
     gridtolerance="10"
     guidetolerance="10"
     id="namedview8"
     inkscape:current-layer="svg2"
     inkscape:cx="-38.836974"
     inkscape:cy="14.237288"
     inkscape:pageopacity="0"
     inkscape:pageshadow="2"
     inkscape:window-height="853"
     inkscape:window-maximized="0"
     inkscape:window-width="1616"
     inkscape:window-x="38"
     inkscape:window-y="213"
     inkscape:zoom="4.9166667"
     objecttolerance="10"
     pagecolor="#ffffff"
     showgrid="false" /><path
     id="path4"
     class="st0"
     d="M0,0h48v48H0V0z" /><path
     id="path6"
     inkscape:connector-curvature="0"
     class="st1"
     d="M41.8,5.4H31.2c-1.1-2.7-3.9-4.6-7.2-4.6s-6.1,2-7.2,4.6H6.2  c-2.8,0-5.1,2.1-5.1,4.6v32.5c0,2.6,2.3,4.6,5.1,4.6h35.5c2.8,0,5.1-2.1,5.1-4.6V10.1C46.8,7.5,44.5,5.4,41.8,5.4z M24,5.4  c1.4,0,2.5,1,2.5,2.3S25.4,10,24,10s-2.5-1-2.5-2.3S22.6,5.4,24,5.4z M18.9,37.9L8.8,28.6l3.6-3.3l6.6,6L35.7,16l3.6,3.3L18.9,37.9z  "
     style="fill:#800080" /></svg>